<?xml version="1.0" encoding="UTF-8" standalone="no"?>
<svg
   xmlns:dc="http://purl.org/dc/elements/1.1/"
   xmlns:cc="http://creativecommons.org/ns#"
   xmlns:rdf="http://www.w3.org/1999/02/22-rdf-syntax-ns#"
   xmlns:svg="http://www.w3.org/2000/svg"
   xmlns="http://www.w3.org/2000/svg"
   xmlns:sodipodi="http://sodipodi.sourceforge.net/DTD/sodipodi-0.dtd"
   xmlns:inkscape="http://www.inkscape.org/namespaces/inkscape"
   version="1.1"
   viewBox="0 0 840.99262 224.51991"
   stroke-miterlimit="10"
   id="svg113"
   sodipodi:docname="control_loop.svg"
   width="840.99261"
   height="224.51991"
   style="fill:none;stroke:none;stroke-linecap:square;stroke-miterlimit:10"
   inkscape:version="0.92.3 (2405546, 2018-03-11)">
  <metadata
     id="metadata119">
    <rdf:RDF>
      <cc:Work
         rdf:about="">
        <dc:format>image/svg+xml</dc:format>
        <dc:type
           rdf:resource="http://purl.org/dc/dcmitype/StillImage" />
        <dc:title></dc:title>
      </cc:Work>
    </rdf:RDF>
  </metadata>
  <defs
     id="defs117">
    <clipPath
       clipPathUnits="userSpaceOnUse"
       id="clipPath928">
      <rect
         style="opacity:1;fill:#ffffff;fill-opacity:1;stroke:#000000;stroke-width:2;stroke-miterlimit:4;stroke-dasharray:none;stroke-dashoffset:0;stroke-opacity:1"
         id="rect930"
         width="864.07886"
         height="311.01431"
         x="20.283541"
         y="174.89626" />
    </clipPath>
    <clipPath
       clipPathUnits="userSpaceOnUse"
       id="clipPath938">
      <rect
         style="opacity:1;fill:#ffffff;fill-opacity:1;stroke:#000000;stroke-width:4.36726379;stroke-miterlimit:4;stroke-dasharray:none;stroke-dashoffset:0;stroke-opacity:1"
         id="rect940"
         width="840.99261"
         height="224.51991"
         x="24.727404"
         y="221.11253" />
    </clipPath>
  </defs>
  <sodipodi:namedview
     pagecolor="#ffffff"
     bordercolor="#666666"
     borderopacity="1"
     objecttolerance="10"
     gridtolerance="10"
     guidetolerance="10"
     inkscape:pageopacity="0"
     inkscape:pageshadow="2"
     inkscape:window-width="2560"
     inkscape:window-height="1385"
     id="namedview115"
     showgrid="false"
     fit-margin-top="0"
     fit-margin-left="0"
     fit-margin-right="0"
     fit-margin-bottom="0"
     inkscape:zoom="1.4790317"
     inkscape:cx="375.23122"
     inkscape:cy="152.4165"
     inkscape:window-x="1920"
     inkscape:window-y="0"
     inkscape:window-maximized="1"
     inkscape:current-layer="svg113" />
  <clipPath
     id="p.0">
    <path
       d="M 0,0 H 960 V 540 H 0 Z"
       id="path2"
       inkscape:connector-curvature="0"
       style="clip-rule:nonzero" />
  </clipPath>
  <g
     clip-path="url(#clipPath938)"
     id="g111"
     transform="translate(-24.727404,-221.11253)">
    <path
       d="M 0,0 H 960 V 540 H 0 Z"
       id="path5"
       inkscape:connector-curvature="0"
       style="fill:#ffffff;fill-rule:evenodd" />
    <path
       d="M 239.11807,270 H 335.811 v 97.82678 h -96.69293 z"
       id="path7"
       inkscape:connector-curvature="0"
       style="fill:#eeeeee;fill-rule:evenodd" />
    <path
       d="M 239.11807,270 H 335.811 v 97.82678 h -96.69293 z"
       id="path9"
       inkscape:connector-curvature="0"
       style="fill-rule:evenodd;stroke:#595959;stroke-width:1;stroke-linecap:butt;stroke-linejoin:round" />
    <path
       d="m 335.811,318.9134 h 82.29919"
       id="path11"
       inkscape:connector-curvature="0"
       style="fill:#000000;fill-opacity:0;fill-rule:evenodd" />
    <path
       d="m 335.811,318.9134 h 70.29919"
       id="path13"
       inkscape:connector-curvature="0"
       style="fill-rule:evenodd;stroke:#000000;stroke-width:2;stroke-linecap:butt;stroke-linejoin:round" />
    <path
       d="m 406.1102,322.21686 9.0762,-3.30347 -9.0762,-3.30346 z"
       id="path15"
       inkscape:connector-curvature="0"
       style="fill:#000000;fill-rule:evenodd;stroke:#000000;stroke-width:2;stroke-linecap:butt" />
    <path
       d="m 554.7533,318.9134 h 63.27557"
       id="path17"
       inkscape:connector-curvature="0"
       style="fill:#000000;fill-opacity:0;fill-rule:evenodd" />
    <path
       d="m 554.7533,318.9134 h 51.27557"
       id="path19"
       inkscape:connector-curvature="0"
       style="fill-rule:evenodd;stroke:#000000;stroke-width:2;stroke-linecap:butt;stroke-linejoin:round" />
    <path
       d="m 606.0289,322.21686 9.07617,-3.30347 -9.07617,-3.30346 z"
       id="path21"
       inkscape:connector-curvature="0"
       style="fill:#000000;fill-rule:evenodd;stroke:#000000;stroke-width:2;stroke-linecap:butt" />
    <path
       d="m 96.80577,318.9134 v 0 c 0,-16.84686 13.43146,-30.50394 30,-30.50394 v 0 c 7.9565,0 15.58711,3.21381 21.21321,8.93439 5.62608,5.72061 8.78679,13.4794 8.78679,21.56955 v 0 c 0,16.84686 -13.43146,30.50394 -30,30.50394 v 0 c -16.56854,0 -30,-13.65708 -30,-30.50394 z"
       id="path23"
       inkscape:connector-curvature="0"
       style="fill:#eeeeee;fill-rule:evenodd" />
    <path
       d="m 96.80577,318.9134 v 0 c 0,-16.84686 13.43146,-30.50394 30,-30.50394 v 0 c 7.9565,0 15.58711,3.21381 21.21321,8.93439 5.62608,5.72061 8.78679,13.4794 8.78679,21.56955 v 0 c 0,16.84686 -13.43146,30.50394 -30,30.50394 v 0 c -16.56854,0 -30,-13.65708 -30,-30.50394 z"
       id="path25"
       inkscape:connector-curvature="0"
       style="fill-rule:evenodd;stroke:#595959;stroke-width:1;stroke-linecap:butt;stroke-linejoin:round" />
    <path
       d="m 705.3884,318.9134 h 25.00256 V 444.20472 H 127.56161"
       id="path27"
       inkscape:connector-curvature="0"
       style="fill:#000000;fill-opacity:0;fill-rule:evenodd" />
    <path
       d="m 705.3884,318.9134 h 25.00256 V 444.20472 H 127.56161"
       id="path29"
       inkscape:connector-curvature="0"
       style="fill-rule:evenodd;stroke:#000000;stroke-width:2;stroke-linecap:butt;stroke-linejoin:round" />
    <path
       d="m 127.05774,445.19684 -0.25197,-95.77951"
       id="path31"
       inkscape:connector-curvature="0"
       style="fill:#000000;fill-opacity:0;fill-rule:evenodd" />
    <path
       d="m 127.05774,445.19684 -0.2204,-83.77957"
       id="path33"
       inkscape:connector-curvature="0"
       style="fill-rule:evenodd;stroke:#000000;stroke-width:2;stroke-linecap:butt;stroke-linejoin:round" />
    <path
       d="m 130.1408,361.4086 -3.32732,-9.06747 -3.27958,9.08483 z"
       id="path35"
       inkscape:connector-curvature="0"
       style="fill:#000000;fill-rule:evenodd;stroke:#000000;stroke-width:2;stroke-linecap:butt" />
    <path
       d="m 156.80577,318.9134 h 82.29921"
       id="path37"
       inkscape:connector-curvature="0"
       style="fill:#000000;fill-opacity:0;fill-rule:evenodd" />
    <path
       d="m 156.80577,318.9134 h 70.29921"
       id="path39"
       inkscape:connector-curvature="0"
       style="fill-rule:evenodd;stroke:#000000;stroke-width:2;stroke-linecap:butt;stroke-linejoin:round" />
    <path
       d="m 227.10498,322.21686 9.0762,-3.30347 -9.0762,-3.30346 z"
       id="path41"
       inkscape:connector-curvature="0"
       style="fill:#000000;fill-rule:evenodd;stroke:#000000;stroke-width:2;stroke-linecap:butt" />
    <path
       d="m 26.727034,319.16534 70.078735,-0.25195"
       id="path43"
       inkscape:connector-curvature="0"
       style="fill:#000000;fill-opacity:0;fill-rule:evenodd" />
    <path
       d="m 26.727034,319.16534 58.07882,-0.2088"
       id="path45"
       inkscape:connector-curvature="0"
       style="fill-rule:evenodd;stroke:#000000;stroke-width:2;stroke-linecap:butt;stroke-linejoin:round" />
    <path
       d="m 84.817726,322.25998 9.064262,-3.33609 -9.088013,-3.27081 z"
       id="path47"
       inkscape:connector-curvature="0"
       style="fill:#000000;fill-rule:evenodd;stroke:#000000;stroke-width:2;stroke-linecap:butt" />
    <path
       d="m 387.73227,253.61475 v 0 c 0,-15.87306 12.86768,-28.74074 28.74075,-28.74074 h 268.72327 c 7.6225,0 14.9328,3.02805 20.32276,8.41797 5.38995,5.38994 8.41797,12.70026 8.41797,20.32277 v 114.95947 c 0,15.87308 -12.86768,28.74075 -28.74073,28.74075 H 416.47302 v 0 c -15.87307,0 -28.74075,-12.86767 -28.74075,-28.74075 z"
       id="path49"
       inkscape:connector-curvature="0"
       style="fill:#000000;fill-opacity:0;fill-rule:evenodd" />
    <path
       d="m 387.73227,253.61475 v 0 c 0,-15.87306 12.86768,-28.74074 28.74075,-28.74074 h 268.72327 c 7.6225,0 14.9328,3.02805 20.32276,8.41797 5.38995,5.38994 8.41797,12.70026 8.41797,20.32277 v 114.95947 c 0,15.87308 -12.86768,28.74075 -28.74073,28.74075 H 416.47302 v 0 c -15.87307,0 -28.74075,-12.86767 -28.74075,-28.74075 z"
       id="path51"
       inkscape:connector-curvature="0"
       style="fill-rule:evenodd;stroke:#000000;stroke-width:1;stroke-linecap:butt;stroke-linejoin:round;stroke-dasharray:4, 3" />
    <path
       d="m 418.12335,270 h 136.62994 v 97.82678 H 418.12335 Z"
       id="path53"
       inkscape:connector-curvature="0"
       style="fill:#eeeeee;fill-rule:evenodd" />
    <path
       d="m 418.12335,270 h 136.62994 v 97.82678 H 418.12335 Z"
       id="path55"
       inkscape:connector-curvature="0"
       style="fill-rule:evenodd;stroke:#595959;stroke-width:1;stroke-linecap:butt;stroke-linejoin:round" />
    <path
       d="m 428.00656,333.13397 v 0 c 0,-3.01807 2.44662,-5.46469 5.46469,-5.46469 h 32.94464 c 1.44934,0 2.8393,0.57574 3.86411,1.60058 1.02484,1.02482 1.60058,2.41477 1.60058,3.86411 V 354.992 c 0,3.01807 -2.44662,5.46469 -5.46469,5.46469 h -32.94464 v 0 c -3.01807,0 -5.46469,-2.44662 -5.46469,-5.46469 z"
       id="path57"
       inkscape:connector-curvature="0"
       style="fill:#000000;fill-rule:evenodd" />
    <path
       d="m 428.00656,333.13397 v 0 c 0,-3.01807 2.44662,-5.46469 5.46469,-5.46469 h 32.94464 c 1.44934,0 2.8393,0.57574 3.86411,1.60058 1.02484,1.02482 1.60058,2.41477 1.60058,3.86411 V 354.992 c 0,3.01807 -2.44662,5.46469 -5.46469,5.46469 h -32.94464 v 0 c -3.01807,0 -5.46469,-2.44662 -5.46469,-5.46469 z"
       id="path59"
       inkscape:connector-curvature="0"
       style="fill-rule:evenodd;stroke:#000000;stroke-width:1;stroke-linecap:butt;stroke-linejoin:round" />
    <path
       d="m 436.33728,313.55905 v 0 c 0,-7.79288 6.09174,-14.11023 13.60629,-14.11023 v 0 c 3.60861,0 7.06943,1.4866 9.6211,4.13278 2.55169,2.64618 3.9852,6.2352 3.9852,9.97745 v 0 c 0,7.79288 -6.09174,14.11023 -13.6063,14.11023 v 0 c -7.51455,0 -13.60629,-6.31735 -13.60629,-14.11023 z"
       id="path61"
       inkscape:connector-curvature="0"
       style="fill:#000000;fill-rule:evenodd" />
    <path
       d="m 436.33728,313.55905 v 0 c 0,-7.79288 6.09174,-14.11023 13.60629,-14.11023 v 0 c 3.60861,0 7.06943,1.4866 9.6211,4.13278 2.55169,2.64618 3.9852,6.2352 3.9852,9.97745 v 0 c 0,7.79288 -6.09174,14.11023 -13.6063,14.11023 v 0 c -7.51455,0 -13.60629,-6.31735 -13.60629,-14.11023 z"
       id="path63"
       inkscape:connector-curvature="0"
       style="fill-rule:evenodd;stroke:#000000;stroke-width:1;stroke-linecap:butt;stroke-linejoin:round" />
    <path
       d="m 481.7795,278.5748 h 59.99997 v 65.03937 H 481.7795 Z"
       id="path65"
       inkscape:connector-curvature="0"
       style="fill:#000000;fill-opacity:0;fill-rule:evenodd" />
    <path
       d="m 493.98264,325.9748 v -28.64062 h 3.79687 v 11.76562 h 14.87497 v -11.76562 h 3.79688 v 28.64062 h -3.79688 v -13.5 h -14.87497 v 13.5 z"
       id="path67"
       inkscape:connector-curvature="0"
       style="fill:#000000;fill-rule:nonzero" />
    <path
       d="m 618.0184,270 h 87.37006 v 97.82678 H 618.0184 Z"
       id="path69"
       inkscape:connector-curvature="0"
       style="fill:#eeeeee;fill-rule:evenodd" />
    <path
       d="m 618.0184,270 h 87.37006 v 97.82678 H 618.0184 Z"
       id="path71"
       inkscape:connector-curvature="0"
       style="fill-rule:evenodd;stroke:#595959;stroke-width:1;stroke-linecap:butt;stroke-linejoin:round" />
    <path
       d="m 641.9816,278.5748 h 60 v 65.03937 h -60 z"
       id="path73"
       inkscape:connector-curvature="0"
       style="fill:#000000;fill-opacity:0;fill-rule:evenodd" />
    <path
       d="m 654.0754,325.9748 v -28.64062 h 10.79687 q 2.84375,0 4.35938,0.28125 2.10937,0.34375 3.53125,1.34375 1.42187,0.98437 2.28125,2.76562 0.875,1.76563 0.875,3.89063 0,3.65625 -2.32813,6.1875 -2.3125,2.53125 -8.39062,2.53125 h -7.34375 v 11.64062 z m 3.78125,-15.01562 h 7.40625 q 3.67187,0 5.20312,-1.35938 1.54688,-1.375 1.54688,-3.85937 0,-1.79688 -0.90625,-3.07813 -0.90625,-1.28125 -2.39063,-1.6875 -0.95312,-0.25 -3.53125,-0.25 h -7.32812 z"
       id="path75"
       inkscape:connector-curvature="0"
       style="fill:#000000;fill-rule:nonzero" />
    <path
       d="m 265.91467,278.5748 h 60 v 65.03937 h -60 z"
       id="path77"
       inkscape:connector-curvature="0"
       style="fill:#000000;fill-opacity:0;fill-rule:evenodd" />
    <path
       d="m 277.85217,325.9748 v -28.64062 h 3.78125 v 14.20312 l 14.21875,-14.20312 h 5.14062 l -12.01562,11.60937 12.54687,17.03125 h -5 l -10.20312,-14.5 -4.6875,4.57813 v 9.92187 z"
       id="path79"
       inkscape:connector-curvature="0"
       style="fill:#000000;fill-rule:nonzero" />
    <path
       d="m 705.3884,318.9134 117.48035,0.25195"
       id="path81"
       inkscape:connector-curvature="0"
       style="fill:#000000;fill-opacity:0;fill-rule:evenodd" />
    <path
       d="m 705.3884,318.9134 105.48035,0.22623"
       id="path83"
       inkscape:connector-curvature="0"
       style="fill-rule:evenodd;stroke:#000000;stroke-width:2;stroke-linecap:butt;stroke-linejoin:round" />
    <path
       d="m 810.8617,322.44308 9.08325,-3.284 -9.06909,-3.32293 z"
       id="path85"
       inkscape:connector-curvature="0"
       style="fill:#000000;fill-rule:evenodd;stroke:#000000;stroke-width:2;stroke-linecap:butt" />
    <path
       d="m 110.91338,302.09448 h 33.79528 v 52.06299 h -33.79528 z"
       id="path87"
       inkscape:connector-curvature="0"
       style="fill:#000000;fill-opacity:0;fill-rule:evenodd" />
    <path
       d="m 121.17901,340.90073 v -3.53125 h 10.81251 v 3.53125 z"
       id="path89"
       inkscape:connector-curvature="0"
       style="fill:#000000;fill-rule:nonzero" />
    <path
       d="m 93.32809,288.40945 h 43.87402 v 52.06299 H 93.32809 Z"
       id="path91"
       inkscape:connector-curvature="0"
       style="fill:#000000;fill-opacity:0;fill-rule:evenodd" />
    <path
       d="m 110.34371,324.42633 v -6.28125 h -6.23437 v -2.625 h 6.23437 v -6.23438 h 2.65625 v 6.23438 h 6.23438 v 2.625 h -6.23438 v 6.28125 z"
       id="path93"
       inkscape:connector-curvature="0"
       style="fill:#000000;fill-rule:nonzero" />
    <path
       d="m 43.09974,266.8504 h 37.32283 v 52.06299 H 43.09974 Z"
       id="path95"
       inkscape:connector-curvature="0"
       style="fill:#000000;fill-opacity:0;fill-rule:evenodd" />
    <path
       d="m 54.69349,314.2504 v -20.75 h 3.171875 v 3.15625 q 1.203125,-2.21875 2.234375,-2.92187 1.03125,-0.70313 2.25,-0.70313 1.78125,0 3.625,1.14063 l -1.21875,3.26562 q -1.28125,-0.76562 -2.578125,-0.76562 -1.15625,0 -2.078125,0.70312 -0.90625,0.6875 -1.296875,1.90625 -0.59375,1.875 -0.59375,4.10938 v 10.85937 z"
       id="path97"
       inkscape:connector-curvature="0"
       style="fill:#000000;fill-rule:nonzero" />
    <path
       d="m 173.25197,264.3281 h 37.32283 v 52.06299 h -37.32283 z"
       id="path99"
       inkscape:connector-curvature="0"
       style="fill:#000000;fill-opacity:0;fill-rule:evenodd" />
    <path
       d="m 199.09572,305.0406 3.625,0.45312 q -0.85938,3.1875 -3.1875,4.95313 -2.3125,1.75 -5.9375,1.75 -4.54688,0 -7.21875,-2.79688 -2.65625,-2.8125 -2.65625,-7.875 0,-5.23437 2.6875,-8.125 2.70312,-2.89062 7,-2.89062 4.15625,0 6.79687,2.84375 2.64063,2.82812 2.64063,7.96875 0,0.3125 -0.0312,0.9375 h -15.46875 q 0.20312,3.40625 1.9375,5.23437 1.73437,1.8125 4.34375,1.8125 1.92187,0 3.28125,-1.01562 1.375,-1.01563 2.1875,-3.25 z m -11.54688,-5.67188 h 11.57813 q -0.23438,-2.625 -1.32813,-3.9375 -1.67187,-2.03125 -4.35937,-2.03125 -2.42188,0 -4.07813,1.625 -1.64062,1.625 -1.8125,4.34375 z"
       id="path101"
       inkscape:connector-curvature="0"
       style="fill:#000000;fill-rule:nonzero" />
    <path
       d="m 347.39502,264.3281 h 37.32281 v 52.06299 h -37.32281 z"
       id="path103"
       inkscape:connector-curvature="0"
       style="fill:#000000;fill-opacity:0;fill-rule:evenodd" />
    <path
       d="m 372.6294,311.7281 v -3.04688 q -2.42188,3.51563 -6.57813,3.51563 -1.84375,0 -3.4375,-0.70313 -1.59375,-0.70312 -2.35937,-1.76562 -0.76563,-1.0625 -1.07813,-2.60938 -0.21875,-1.03125 -0.21875,-3.28125 V 290.9781 h 3.51563 v 11.51562 q 0,2.75 0.21875,3.70313 0.32812,1.39062 1.39062,2.1875 1.07813,0.78125 2.67188,0.78125 1.57812,0 2.95312,-0.8125 1.39063,-0.8125 1.96875,-2.20313 0.57813,-1.39062 0.57813,-4.04687 v -11.125 h 3.51562 v 20.75 z"
       id="path105"
       inkscape:connector-curvature="0"
       style="fill:#000000;fill-rule:nonzero" />
    <path
       d="m 836.9711,285.063 h 37.32281 v 52.06299 H 836.9711 Z"
       id="path107"
       inkscape:connector-curvature="0"
       style="fill:#000000;fill-opacity:0;fill-rule:evenodd" />
    <path
       d="m 848.4555,340.44736 -0.39062,-3.29688 q 1.15625,0.3125 2.01562,0.3125 1.17188,0 1.875,-0.39062 0.70313,-0.39063 1.14063,-1.09375 0.34375,-0.53125 1.07812,-2.60938 0.0937,-0.29687 0.3125,-0.85937 l -7.875,-20.79688 h 3.79688 l 4.3125,12.01563 q 0.84375,2.28125 1.5,4.8125 0.60937,-2.42188 1.45312,-4.73438 l 4.4375,-12.09375 h 3.51563 l -7.89063,21.10938 q -1.28125,3.40625 -1.98437,4.70312 -0.9375,1.73438 -2.15625,2.54688 -1.20313,0.8125 -2.875,0.8125 -1.01563,0 -2.26563,-0.4375 z"
       id="path109"
       inkscape:connector-curvature="0"
       style="fill:#000000;fill-rule:nonzero" />
  </g>
</svg>
