<?xml version="1.0" encoding="utf-8"?>
<!-- Svg Vector Icons : http://www.onlinewebfonts.com/icon -->
<!DOCTYPE svg PUBLIC "-//W3C//DTD SVG 1.1//EN" "http://www.w3.org/Graphics/SVG/1.1/DTD/svg11.dtd">
<svg version="1.1" xmlns="http://www.w3.org/2000/svg" xmlns:xlink="http://www.w3.org/1999/xlink" x="0px" y="0px" viewBox="0 0 1000 1000" enable-background="new 0 0 1000 1000" xml:space="preserve">
<metadata> Svg Vector Icons : http://www.onlinewebfonts.com/icon </metadata>
<g><g><g><path d="M722.7,97.5H277.3c-3.4,0-6.2,2.8-6.2,6.2v782.2c0,3.4,2.8,6.2,6.2,6.2h445.4c3.4,0,6.2-2.8,6.2-6.2V103.7C729,100.3,726.2,97.5,722.7,97.5z M716.5,879.7H283.6V110h432.9V879.7L716.5,879.7z"/><path d="M537.3,904.7H463c-13.3,0-24.1,10.1-24.1,22.6c0,12.5,10.8,22.6,24.1,22.6h74.3c13.3,0,24.1-10.1,24.1-22.6C561.4,914.8,550.6,904.7,537.3,904.7z M537.3,937.3H463c-6.4,0-11.6-4.5-11.6-10.1s5.2-10.1,11.6-10.1h74.3c6.4,0,11.6,4.5,11.6,10.1C548.9,932.8,543.7,937.3,537.3,937.3z"/><path d="M460.4,68.2h93.1c4.4,0,8-3.6,8-8s-3.6-8-8-8h-93.1c-4.4,0-8,3.6-8,8C452.4,64.6,456,68.2,460.4,68.2z M460.4,56.3h93.1c2.1,0,3.9,1.7,3.9,3.9c0,2.1-1.7,3.9-3.9,3.9h-93.1c-2.1,0-3.9-1.7-3.9-3.9C456.6,58,458.3,56.3,460.4,56.3z"/><circle cx="466.4" cy="60.2" r="2.2"/><circle cx="472.7" cy="60.2" r="2.2"/><circle cx="479" cy="60.2" r="2.2"/><circle cx="485.3" cy="60.2" r="2.2"/><circle cx="491.6" cy="60.2" r="2.2"/><circle cx="498" cy="60.2" r="2.2"/><circle cx="504.3" cy="60.2" r="2.2"/><circle cx="510.6" cy="60.2" r="2.2"/><circle cx="516.9" cy="60.2" r="2.2"/><circle cx="523.2" cy="60.2" r="2.2"/><circle cx="529.5" cy="60.2" r="2.2"/><circle cx="535.9" cy="60.2" r="2.2"/><circle cx="542.2" cy="60.2" r="2.2"/><circle cx="548.5" cy="60.2" r="2.2"/><circle cx="585.6" cy="58" r="6.6"/><circle cx="606.6" cy="58" r="6.6"/><path d="M667.7,49.1c6.1,0,11.1,5,11.1,11.1c0,6.1-5,11.1-11.1,11.1c-6.1,0-11.1-5-11.1-11.1C656.6,54,661.6,49.1,667.7,49.1z"/><path d="M374.4,915.1h-32.4c-1,0-1.8,0.8-1.8,1.8v16.7c0,1,0.8,1.8,1.8,1.8c1,0,1.8-0.8,1.8-1.8v-14.9h28.8v14.9c0,1,0.8,1.8,1.8,1.8c1,0,1.8-0.8,1.8-1.8v-16.7C376.2,915.9,375.4,915.1,374.4,915.1z"/><path d="M365.6,934.2h-15c-1,0-1.8,0.8-1.8,1.8c0,1,0.8,1.8,1.8,1.8h15c1,0,1.8-0.8,1.8-1.8C367.4,935,366.6,934.2,365.6,934.2z"/><path d="M365.6,941.5h-15c-1,0-1.8,0.8-1.8,1.8c0,1,0.8,1.8,1.8,1.8h15c1,0,1.8-0.8,1.8-1.8C367.4,942.3,366.6,941.5,365.6,941.5z"/><path d="M649.6,918.9h-12.5l0.4-0.9l-6.3,2.7l6.3,2.7l-0.4-0.9h12.5c3.8,0,6.8,3,6.8,6.6c0,3.7-3.1,6.6-6.8,6.6h-12.2c-1,0-1.8,0.8-1.8,1.8c0,1,0.8,1.8,1.8,1.8h12.2c5.8,0,10.4-4.6,10.4-10.3C660,923.5,655.3,918.9,649.6,918.9z"/><path d="M765.1,888.3V111.7C765.1,55.6,719.5,10,663.5,10H336.5c-56.1,0-101.7,45.6-101.7,101.7v776.7c0,56,45.6,101.7,101.7,101.7h326.9C719.5,990,765.1,944.4,765.1,888.3z M663.5,965H336.5c-42.3,0-76.7-34.4-76.7-76.7V111.7c0-42.3,34.4-76.7,76.7-76.7h326.9c42.3,0,76.7,34.4,76.7,76.7v776.7C740.1,930.6,705.8,965,663.5,965z"/></g></g><g></g><g></g><g></g><g></g><g></g><g></g><g></g><g></g><g></g><g></g><g></g><g></g><g></g><g></g><g></g></g>
</svg>